<svg width="404" height="172" viewBox="0 0 404 172" fill="none" xmlns="http://www.w3.org/2000/svg">
<path d="M7.51953 103.416C3.71094 103.416 1.80664 100.682 1.80664 95.2129C1.80664 93.3574 2.03451 91.5508 2.49023 89.793C4.44336 82.4036 7.14518 73.7448 10.5957 63.8164C10.7259 63.0026 13.3626 62.5957 18.5059 62.5957H20.2148C20.2148 62.6608 19.5475 64.793 18.2129 68.9922C14.209 81.5898 12.207 89.0605 12.207 91.4043C12.207 93.748 13.2975 94.9199 15.4785 94.9199C17.334 94.9199 19.6289 94.1224 22.3633 92.5273C25.1302 90.9323 26.7415 89.6628 27.1973 88.7188L32.5195 68.4062C33.2357 65.6393 34.2122 63.9466 35.4492 63.3281C36.3932 62.8398 37.9069 62.5957 39.9902 62.5957H43.3105C39.1764 77.5371 36.735 86.668 35.9863 89.9883C35.7259 92.4622 35.5957 93.9434 35.5957 94.4316C35.5957 94.9199 35.6608 95.2617 35.791 95.457C35.9538 95.6198 36.2956 95.7012 36.8164 95.7012C38.4766 95.7012 44.3359 90.6719 54.3945 80.6133V86.082C53.6133 86.7982 52.2624 88.0677 50.3418 89.8906C48.4212 91.681 46.9564 93.0482 45.9473 93.9922C44.9382 94.9036 43.571 96.0592 41.8457 97.459C40.153 98.8587 38.737 99.9167 37.5977 100.633C34.6354 102.488 32.2103 103.416 30.3223 103.416C27.5228 103.416 26.123 101.284 26.123 97.0195C26.123 95.2292 26.2858 93.7155 26.6113 92.4785C19.0918 99.7702 12.7279 103.416 7.51953 103.416ZM51.3713 93.4062L51.2737 98.7773C51.2737 103.595 53.178 106.004 56.9866 106.004C60.079 106.004 62.7157 103.953 64.8967 99.8516C66.9801 95.9779 68.4774 92.153 69.3889 88.377C71.0165 81.6387 72.1558 76.1862 72.8069 72.0195L78.178 43.8945C78.3733 42.9505 79.2522 42.2507 80.8147 41.7949C82.4097 41.3392 83.8095 41.1113 85.0139 41.1113L89.3108 41.0137C88.9527 43.5527 88.2203 47.7194 87.1135 53.5137C86.0067 59.2754 85.0302 63.8652 84.1838 67.2832H85.4045C93.4774 67.2832 99.7437 65.444 104.203 61.7656C108.403 58.25 110.502 54.2786 110.502 49.8516C110.502 45.4245 108.484 41.681 104.447 38.6211C100.411 35.5286 94.6981 33.9824 87.3088 33.9824C83.4351 33.9824 79.301 34.5846 74.9065 35.7891C70.5445 36.9609 66.7196 38.7025 63.4319 41.0137C60.1441 43.3249 58.5002 45.7663 58.5002 48.3379C58.5002 50.877 59.1676 52.7812 60.5022 54.0508C61.8368 55.2878 63.8388 56.4108 66.508 57.4199C66.508 60.8053 66.0686 63.3932 65.1897 65.1836C59.786 63.5234 55.6845 60.724 52.885 56.7852C51.3551 54.6042 50.5901 52.0488 50.5901 49.1191C50.5901 46.1895 51.7457 43.3086 54.0569 40.4766C56.4006 37.6445 59.4768 35.3333 63.2854 33.543C71.1955 29.7669 80.1962 27.8789 90.2873 27.8789C103.113 27.8789 112.358 30.776 118.022 36.5703C121.277 39.9232 122.905 43.8294 122.905 48.2891C122.905 51.3164 122.123 54.3112 120.561 57.2734C118.998 60.2031 116.834 62.8561 114.067 65.2324C111.332 67.6087 107.865 69.5293 103.666 70.9941C99.467 72.459 94.9423 73.1914 90.092 73.1914C87.8785 73.1914 85.5836 72.9961 83.2073 72.6055C80.7659 89.1419 75.8668 100.34 68.51 106.199C64.7014 109.259 60.6975 110.789 56.4983 110.789C52.3316 110.789 48.8485 109.796 46.0491 107.811C43.217 105.825 41.801 103.025 41.801 99.4121C41.801 95.4082 44.9911 93.4062 51.3713 93.4062ZM117.977 103.416C114.071 103.416 111.662 100.665 110.75 95.1641C110.555 93.8294 110.457 92.446 110.457 91.0137C110.457 87.4655 111.336 83.8848 113.094 80.2715C114.852 76.6582 117.163 73.4355 120.028 70.6035C122.925 67.7715 126.375 65.4603 130.379 63.6699C134.416 61.8796 138.534 60.9844 142.733 60.9844C144.784 60.9844 147.518 61.5215 150.936 62.5957C150.903 62.8236 150.578 64.321 149.959 67.0879C149.341 69.8223 148.722 72.6217 148.104 75.4863C146.411 83.3314 145.565 88.1979 145.565 90.0859C145.565 91.974 146.053 92.918 147.03 92.918C149.178 92.918 154.159 88.7839 161.971 80.5156V85.9844C157.023 91.0951 152.303 95.278 147.811 98.5332C143.351 101.788 140.373 103.416 138.875 103.416C136.402 103.416 135.165 101.284 135.165 97.0195C135.165 95.6198 135.295 94.041 135.555 92.2832C133.211 95.3431 130.477 97.9635 127.352 100.145C124.26 102.326 121.135 103.416 117.977 103.416ZM120.858 88.2793C120.858 93.1621 122.453 95.6035 125.643 95.6035C127.01 95.6035 128.687 94.8874 130.672 93.4551C132.691 92.0228 134.513 90.444 136.141 88.7188L141.756 64.6953C138.241 64.6953 134.839 65.9486 131.551 68.4551C128.263 70.9616 125.659 74.0378 123.739 77.6836C121.818 81.3294 120.858 84.8613 120.858 88.2793ZM180.237 92.4785C172.652 99.7702 166.256 103.416 161.048 103.416C159.029 103.416 157.565 102.635 156.653 101.072C155.774 99.5098 155.335 97.4915 155.335 95.0176C155.335 90.8835 158.264 80.4831 164.124 63.8164C164.254 63.0026 166.891 62.5957 172.034 62.5957H173.743C173.743 62.6608 173.076 64.793 171.741 68.9922C167.737 81.5898 165.735 89.0605 165.735 91.4043C165.735 93.748 166.826 94.9199 169.007 94.9199C170.862 94.9199 173.157 94.1224 175.891 92.5273C178.658 90.9323 180.27 89.6628 180.725 88.7188L186.048 68.4062C186.764 65.6393 187.74 63.9466 188.977 63.3281C189.921 62.8398 191.435 62.5957 193.518 62.5957H196.839C196.09 64.7116 195.048 68.1947 193.714 73.0449C192.412 77.8952 191.484 81.3294 190.93 83.3477C189.726 87.7422 188.896 90.8509 188.44 92.6738L188.05 93.9922C195.471 87.8073 200.631 83.3151 203.528 80.5156V85.9844L187.219 100.682V100.877C186.471 105.011 185.283 108.722 183.655 112.01C182.06 115.298 180.253 117.918 178.235 119.871C174.101 123.875 169.869 125.877 165.54 125.877C163.294 125.877 161.194 125.161 159.241 123.729C157.288 122.296 156.311 120.604 156.311 118.65C156.311 116.697 156.962 115.037 158.264 113.67C159.599 112.335 161.487 110.984 163.928 109.617L178.626 100.291L180.237 92.4785ZM178.04 106.297L169.007 112.01C167.932 112.661 167.07 113.214 166.419 113.67C165.8 114.158 165.182 114.842 164.563 115.721C163.945 116.6 163.635 117.527 163.635 118.504C163.635 121.173 164.84 122.508 167.249 122.508C170.146 122.508 172.49 121.027 174.28 118.064C176.07 115.102 177.324 111.18 178.04 106.297ZM247.185 103.514C245.264 103.514 244.304 102.081 244.304 99.2168C244.304 95.4082 245.427 91.0137 247.673 86.0332C249.951 81.0202 251.091 76.8698 251.091 73.582C251.091 72.7031 250.782 71.8893 250.163 71.1406C249.545 70.3919 248.601 70.0176 247.331 70.0176C246.094 70.0176 244.613 70.929 242.888 72.752C241.162 74.5749 239.616 76.7559 238.249 79.2949C236.882 81.8014 235.531 84.6497 234.196 87.8398C232.145 92.8854 230.502 97.6055 229.265 102H219.89C219.89 97.7357 221.224 91.2578 223.894 82.5664C225.489 77.3906 226.286 74.2331 226.286 73.0938C226.286 71.9219 226.058 71.0918 225.602 70.6035C225.147 70.0827 224.691 69.8223 224.235 69.8223C223.78 69.8223 223.356 69.8874 222.966 70.0176C220.85 70.9941 218.75 72.9147 216.667 75.7793C214.616 78.6113 212.842 81.7852 211.345 85.3008C208.545 91.8112 206.56 97.3776 205.388 102H196.061C196.322 97.8008 197.445 91.2415 199.431 82.3223C201.449 73.3704 203.272 67.5924 204.899 64.9883C205.485 63.9466 206.462 63.2956 207.829 63.0352C209.229 62.7422 211.605 62.5957 214.958 62.5957C214.502 64.8743 213.558 68.1784 212.126 72.5078C210.726 76.8372 209.88 79.5065 209.587 80.5156C216.976 67.5599 224.349 61.082 231.706 61.082C232.976 61.082 233.92 61.7982 234.538 63.2305C235.157 64.6302 235.466 66.4531 235.466 68.6992C235.466 70.9128 234.603 74.8516 232.878 80.5156C235.189 75.9909 238.298 71.7103 242.204 67.6738C244.157 65.6882 246.273 64.0768 248.552 62.8398C250.83 61.6029 253.011 60.9844 255.095 60.9844C258.741 60.9844 260.563 63.4909 260.563 68.5039C260.563 73.1263 259.294 79.181 256.755 86.668C256.039 88.7513 255.681 90.1348 255.681 90.8184C255.681 91.4694 255.827 91.7949 256.12 91.7949C256.446 91.7949 256.787 91.7135 257.145 91.5508C257.504 91.3555 257.927 91.0625 258.415 90.6719C258.936 90.2487 259.44 89.8255 259.929 89.4023C260.417 88.9466 261.052 88.3444 261.833 87.5957C262.614 86.8145 263.314 86.1309 263.933 85.5449C264.551 84.9264 265.365 84.1126 266.374 83.1035L268.962 80.5156V85.9844C264.893 90.1836 260.645 94.1549 256.218 97.8984C251.791 101.642 248.78 103.514 247.185 103.514ZM277.657 74.4121C280.131 77.6022 282.866 79.1973 285.861 79.1973C287.749 79.1973 289.376 78.2695 290.743 76.4141C292.143 74.5586 292.843 72.6055 292.843 70.5547C292.843 68.5039 292.452 67.1367 291.671 66.4531C290.922 65.737 289.816 65.3789 288.351 65.3789C286.918 65.3789 285.568 65.7044 284.298 66.3555C283.061 67.0065 282.003 67.8203 281.124 68.7969C279.431 70.7174 278.276 72.5892 277.657 74.4121ZM304.464 80.6133V85.9844C299.288 91.681 294.666 96.0104 290.597 98.9727C286.528 101.935 282.654 103.416 278.976 103.416C271.619 103.416 267.029 101.023 265.206 96.2383C264.523 94.3503 264.181 92.0716 264.181 89.4023C264.181 84.6497 265.174 80.125 267.159 75.8281C269.145 71.4987 271.993 67.9505 275.704 65.1836C279.448 62.3841 283.598 60.9844 288.155 60.9844C295.838 60.9844 299.679 63.849 299.679 69.5781C299.679 73.2891 298.181 76.528 295.187 79.2949C292.192 82.0293 288.823 83.3965 285.079 83.3965C283.582 83.3965 282.019 82.957 280.392 82.0781C278.764 81.1992 277.381 79.8809 276.241 78.123C274.842 81.0527 274.142 83.9173 274.142 86.7168C274.142 94.2363 276.876 97.9961 282.345 97.9961C283.777 97.9961 285.535 97.3125 287.618 95.9453C289.734 94.5781 291.59 93.1458 293.185 91.6484C294.812 90.1185 296.863 88.1165 299.337 85.6426C301.811 83.1361 303.52 81.4596 304.464 80.6133ZM345.142 80.7109V86.1797C339.966 91.4531 335.376 95.6523 331.372 98.7773C327.401 101.87 324.748 103.416 323.414 103.416C320.972 103.416 319.751 102.049 319.751 99.3145C319.751 96.5801 320.354 93.3249 321.558 89.5488C322.795 85.7402 324.016 82.306 325.22 79.2461C326.457 76.1536 327.076 74.0866 327.076 73.0449C327.076 72.0033 326.88 71.2383 326.49 70.75C326.132 70.2617 325.692 70.0176 325.171 70.0176C323.316 70.0176 321.314 71.3197 319.165 73.9238C317.017 76.4954 315.096 79.6204 313.404 83.2988C309.888 90.916 307.577 97.1497 306.47 102H297.144C297.177 98.4844 298.169 92.6576 300.122 84.5195C302.076 76.3815 303.817 70.3757 305.347 66.502C305.966 64.9395 306.845 63.8978 307.984 63.377C309.156 62.8561 310.718 62.5957 312.671 62.5957H315.943C313.567 70.7988 311.809 76.707 310.669 80.3203C312.85 76.2513 316.008 72.1172 320.142 67.918C322.16 65.8997 324.358 64.2396 326.734 62.9375C329.11 61.6354 331.356 60.9844 333.472 60.9844C336.662 60.9844 338.257 62.8887 338.257 66.6973C338.257 68.5202 337.102 72.8496 334.79 79.6855C332.512 86.4889 331.372 90.2487 331.372 90.9648C331.372 91.6484 331.568 91.9902 331.958 91.9902C332.382 91.9902 332.919 91.7786 333.57 91.3555C334.253 90.8997 336.19 89.1582 339.38 86.1309C342.57 83.071 344.491 81.2643 345.142 80.7109ZM346.66 66.1113C346.204 66.1113 345.813 66.1113 345.488 66.1113C345.195 66.1113 344.902 66.1113 344.609 66.1113C344.316 66.0788 344.088 66.0462 343.925 66.0137C343.763 65.9811 343.567 65.9323 343.34 65.8672C343.144 65.8021 342.981 65.7207 342.851 65.623C342.721 65.5254 342.591 65.4115 342.461 65.2812C342.233 65.0208 342.119 64.679 342.119 64.2559C342.119 63.8001 342.135 63.5072 342.168 63.377C342.298 63.0514 342.884 62.8236 343.925 62.6934L348.027 62.3027C349.557 57.2246 350.631 54.002 351.25 52.6348C351.868 51.235 352.454 49.9818 353.008 48.875C353.593 47.7682 354.147 46.9056 354.668 46.2871C355.221 45.6686 355.856 45.0013 356.572 44.2852C357.288 43.569 358.037 43.0319 358.818 42.6738C360.674 41.8275 362.578 41.4043 364.531 41.4043L364.726 41.5996C364.726 41.7298 364.303 42.9993 363.457 45.4082C360.657 53.416 358.786 59.0475 357.841 62.3027L372.734 61.6191L371.66 63.377C370.846 64.8743 365.98 65.623 357.06 65.623C357.028 65.623 356.523 67.4297 355.547 71.043C352.617 81.8177 351.152 88.3444 351.152 90.623C351.152 92.9342 351.412 94.2689 351.933 94.627C352.454 94.9525 352.991 95.1152 353.545 95.1152C355.302 95.1152 361.504 90.0697 372.148 79.9785V85.4961C371.041 86.5052 369.511 87.9212 367.558 89.7441C365.605 91.5671 364.059 92.9993 362.92 94.041C361.813 95.0501 360.413 96.2383 358.72 97.6055C357.06 98.9727 355.644 100.014 354.472 100.73C351.478 102.521 348.841 103.416 346.562 103.416C342.688 103.416 340.752 100.714 340.752 95.3105C340.752 92.3483 341.207 88.8652 342.119 84.8613C343.063 80.8249 343.86 77.5371 344.511 74.998C345.162 72.4264 345.879 69.4642 346.66 66.1113ZM382.064 101.658C380.958 102.114 379.737 102.521 378.402 102.879C377.1 103.237 375.782 103.416 374.447 103.416C373.145 103.416 371.762 103.286 370.297 103.025C368.864 102.765 367.448 102.342 366.049 101.756C362.859 100.454 361.264 98.2077 361.264 95.0176C361.264 93.748 361.736 92.2995 362.68 90.6719C363.624 89.0443 364.649 87.612 365.756 86.375C366.895 85.138 368.23 83.722 369.76 82.127C371.29 80.5319 372.331 79.3926 372.885 78.709C372.006 76.528 371.566 74.1517 371.566 71.5801C371.566 67.7715 372.738 64.6302 375.082 62.1562C377.426 59.6497 380.925 58.3965 385.58 58.3965C387.631 58.3965 388.656 58.9661 388.656 60.1055C388.656 62.1237 387.777 63.7025 386.019 64.8418C384.294 65.9486 382.439 66.502 380.453 66.502C381.56 69.8548 383.432 72.8659 386.068 75.5352C387.045 76.5768 387.989 77.5697 388.9 78.5137C391.016 80.6621 392.074 82.5176 392.074 84.0801C392.074 86.4889 390.935 89.2559 388.656 92.3809L403.158 80.5156V85.8867C402.767 86.2122 401.791 87.0586 400.228 88.4258C398.698 89.793 397.575 90.7858 396.859 91.4043C396.176 91.9902 395.036 92.918 393.441 94.1875C391.879 95.457 390.609 96.4336 389.633 97.1172C388.689 97.7682 387.468 98.5658 385.971 99.5098C384.473 100.454 383.171 101.17 382.064 101.658ZM374.984 82.5176C374.724 82.8105 373.731 83.7383 372.006 85.3008C368.165 88.7188 366.244 91.3555 366.244 93.2109C366.244 95.0339 367.188 96.5801 369.076 97.8496C370.964 99.0866 372.999 99.7051 375.18 99.7051C377.361 99.7051 379.118 99.347 380.453 98.6309C381.788 97.8822 382.455 96.9382 382.455 95.7988C382.455 94.6595 382.309 93.6341 382.016 92.7227C381.723 91.8112 381.251 90.8672 380.6 89.8906C379.981 88.8815 379.428 88.0677 378.939 87.4492C378.484 86.7982 377.784 85.9193 376.84 84.8125C375.896 83.6732 375.277 82.9082 374.984 82.5176Z" fill="#005A9C"/>
<path d="M255.809 135.056C255.581 135.056 255.385 135.056 255.223 135.056C255.076 135.056 254.93 135.056 254.783 135.056C254.637 135.039 254.523 135.023 254.441 135.007C254.36 134.991 254.262 134.966 254.148 134.934C254.051 134.901 253.969 134.86 253.904 134.812C253.839 134.763 253.774 134.706 253.709 134.641C253.595 134.51 253.538 134.34 253.538 134.128C253.538 133.9 253.546 133.754 253.562 133.688C253.628 133.526 253.921 133.412 254.441 133.347L256.492 133.151C257.257 130.612 257.794 129.001 258.104 128.317C258.413 127.618 258.706 126.991 258.982 126.438C259.275 125.884 259.552 125.453 259.812 125.144C260.089 124.834 260.407 124.501 260.765 124.143C261.123 123.785 261.497 123.516 261.888 123.337C262.815 122.914 263.768 122.702 264.744 122.702L264.842 122.8C264.842 122.865 264.63 123.5 264.207 124.704C262.807 128.708 261.871 131.524 261.399 133.151L268.846 132.81L268.309 133.688C267.902 134.437 265.468 134.812 261.009 134.812C260.993 134.812 260.74 135.715 260.252 137.521C258.787 142.909 258.055 146.172 258.055 147.312C258.055 148.467 258.185 149.134 258.445 149.313C258.706 149.476 258.974 149.558 259.251 149.558C260.13 149.558 263.23 147.035 268.553 141.989V144.748C267.999 145.253 267.234 145.961 266.258 146.872C265.281 147.784 264.508 148.5 263.938 149.021C263.385 149.525 262.685 150.119 261.839 150.803C261.009 151.486 260.301 152.007 259.715 152.365C258.217 153.26 256.899 153.708 255.76 153.708C253.823 153.708 252.854 152.357 252.854 149.655C252.854 148.174 253.082 146.433 253.538 144.431C254.01 142.412 254.409 140.769 254.734 139.499C255.06 138.213 255.418 136.732 255.809 135.056ZM279.641 117.404L273.244 140.549C274.449 138.319 276.028 136.423 277.981 134.86C279.934 133.282 281.838 132.492 283.694 132.492C285.289 132.492 286.086 133.444 286.086 135.349C286.086 136.032 285.557 137.904 284.499 140.964C283.458 144.007 282.937 146.123 282.937 147.312C282.937 147.8 283.091 148.044 283.401 148.044C283.612 148.044 284.548 147.206 286.208 145.529C287.885 143.837 289.048 142.714 289.699 142.16V144.895C284.573 150.77 281.22 153.708 279.641 153.708C278.599 153.708 278.078 153.09 278.078 151.853C278.078 151.674 278.111 151.364 278.176 150.925C278.241 150.469 278.502 149.468 278.957 147.922C280.276 143.527 280.935 140.354 280.935 138.4C280.935 137.473 280.471 137.009 279.543 137.009C278.111 137.009 276.597 138.059 275.002 140.158C273.423 142.242 272.349 144.349 271.78 146.481C271.226 148.597 270.779 150.103 270.437 150.998C270.095 151.893 269.664 152.561 269.143 153H265.334C265.611 150.982 267.531 143.397 271.096 130.246L272.878 123.605C273.643 120.725 274.359 118.902 275.027 118.137C275.417 117.681 275.93 117.429 276.565 117.38C277.199 117.331 277.826 117.307 278.445 117.307C279.079 117.307 279.478 117.339 279.641 117.404ZM293.781 139.206C295.018 140.801 296.385 141.599 297.882 141.599C298.826 141.599 299.64 141.135 300.324 140.207C301.024 139.279 301.374 138.303 301.374 137.277C301.374 136.252 301.178 135.568 300.788 135.227C300.413 134.868 299.86 134.689 299.127 134.689C298.411 134.689 297.736 134.852 297.101 135.178C296.483 135.503 295.954 135.91 295.514 136.398C294.668 137.359 294.09 138.295 293.781 139.206ZM307.184 142.307V144.992C304.596 147.84 302.285 150.005 300.25 151.486C298.216 152.967 296.279 153.708 294.44 153.708C290.762 153.708 288.467 152.512 287.555 150.119C287.213 149.175 287.042 148.036 287.042 146.701C287.042 144.325 287.539 142.062 288.532 139.914C289.525 137.749 290.949 135.975 292.804 134.592C294.676 133.192 296.751 132.492 299.03 132.492C302.871 132.492 304.791 133.924 304.791 136.789C304.791 138.645 304.043 140.264 302.545 141.647C301.048 143.015 299.363 143.698 297.492 143.698C296.743 143.698 295.962 143.479 295.148 143.039C294.334 142.6 293.642 141.94 293.073 141.062C292.373 142.526 292.023 143.959 292.023 145.358C292.023 149.118 293.39 150.998 296.124 150.998C296.841 150.998 297.72 150.656 298.761 149.973C299.819 149.289 300.747 148.573 301.544 147.824C302.358 147.059 303.384 146.058 304.621 144.821C305.858 143.568 306.712 142.73 307.184 142.307ZM321.597 152.829C321.043 153.057 320.433 153.26 319.766 153.439C319.115 153.618 318.455 153.708 317.788 153.708C317.137 153.708 316.445 153.643 315.713 153.513C314.997 153.382 314.289 153.171 313.589 152.878C311.994 152.227 311.196 151.104 311.196 149.509C311.196 148.874 311.432 148.15 311.904 147.336C312.376 146.522 312.889 145.806 313.442 145.188C314.012 144.569 314.679 143.861 315.444 143.063C316.209 142.266 316.73 141.696 317.007 141.354C316.567 140.264 316.348 139.076 316.348 137.79C316.348 135.886 316.934 134.315 318.105 133.078C319.277 131.825 321.027 131.198 323.354 131.198C324.38 131.198 324.893 131.483 324.893 132.053C324.893 133.062 324.453 133.851 323.574 134.421C322.712 134.974 321.784 135.251 320.791 135.251C321.344 136.927 322.28 138.433 323.599 139.768C324.087 140.288 324.559 140.785 325.015 141.257C326.073 142.331 326.602 143.259 326.602 144.04C326.602 145.244 326.032 146.628 324.893 148.19L332.144 142.258V144.943C331.948 145.106 331.46 145.529 330.679 146.213C329.914 146.896 329.352 147.393 328.994 147.702C328.652 147.995 328.083 148.459 327.285 149.094C326.504 149.729 325.869 150.217 325.381 150.559C324.909 150.884 324.298 151.283 323.55 151.755C322.801 152.227 322.15 152.585 321.597 152.829ZM318.057 143.259C317.926 143.405 317.43 143.869 316.567 144.65C314.647 146.359 313.686 147.678 313.686 148.605C313.686 149.517 314.158 150.29 315.103 150.925C316.047 151.543 317.064 151.853 318.154 151.853C319.245 151.853 320.124 151.674 320.791 151.315C321.458 150.941 321.792 150.469 321.792 149.899C321.792 149.33 321.719 148.817 321.572 148.361C321.426 147.906 321.19 147.434 320.864 146.945C320.555 146.441 320.278 146.034 320.034 145.725C319.806 145.399 319.456 144.96 318.984 144.406C318.512 143.837 318.203 143.454 318.057 143.259ZM332.636 135.056C332.408 135.056 332.213 135.056 332.05 135.056C331.904 135.056 331.757 135.056 331.611 135.056C331.464 135.039 331.35 135.023 331.269 135.007C331.187 134.991 331.09 134.966 330.976 134.934C330.878 134.901 330.797 134.86 330.732 134.812C330.667 134.763 330.601 134.706 330.536 134.641C330.422 134.51 330.365 134.34 330.365 134.128C330.365 133.9 330.374 133.754 330.39 133.688C330.455 133.526 330.748 133.412 331.269 133.347L333.32 133.151C334.085 130.612 334.622 129.001 334.931 128.317C335.24 127.618 335.533 126.991 335.81 126.438C336.103 125.884 336.379 125.453 336.64 125.144C336.917 124.834 337.234 124.501 337.592 124.143C337.95 123.785 338.324 123.516 338.715 123.337C339.643 122.914 340.595 122.702 341.571 122.702L341.669 122.8C341.669 122.865 341.458 123.5 341.034 124.704C339.635 128.708 338.699 131.524 338.227 133.151L345.673 132.81L345.136 133.688C344.729 134.437 342.296 134.812 337.836 134.812C337.82 134.812 337.568 135.715 337.079 137.521C335.614 142.909 334.882 146.172 334.882 147.312C334.882 148.467 335.012 149.134 335.273 149.313C335.533 149.476 335.802 149.558 336.078 149.558C336.957 149.558 340.058 147.035 345.38 141.989V144.748C344.827 145.253 344.062 145.961 343.085 146.872C342.109 147.784 341.335 148.5 340.766 149.021C340.212 149.525 339.513 150.119 338.666 150.803C337.836 151.486 337.128 152.007 336.542 152.365C335.045 153.26 333.726 153.708 332.587 153.708C330.65 153.708 329.682 152.357 329.682 149.655C329.682 148.174 329.91 146.433 330.365 144.431C330.837 142.412 331.236 140.769 331.562 139.499C331.887 138.213 332.245 136.732 332.636 135.056ZM358.128 132.81C358.128 133.282 357.949 133.632 357.591 133.859C354.352 133.859 351.878 134.787 350.169 136.643C348.574 138.4 347.777 140.378 347.777 142.575C347.777 144.756 348.257 146.498 349.217 147.8C350.194 149.102 351.382 149.753 352.782 149.753C354.181 149.753 355.532 149.021 356.834 147.556C355.614 146.791 354.67 145.782 354.002 144.528C353.351 143.275 353.026 142.006 353.026 140.72C353.026 139.418 353.416 138.368 354.198 137.57C354.979 136.757 356.11 136.35 357.591 136.35C359.072 136.35 360.147 136.748 360.814 137.546C361.497 138.343 361.839 139.32 361.839 140.476C361.839 142.852 361.082 144.96 359.569 146.799C359.976 146.962 360.326 147.043 360.619 147.043C360.912 147.043 361.213 146.978 361.522 146.848C361.847 146.701 362.214 146.457 362.621 146.115C363.027 145.757 363.386 145.424 363.695 145.114C364.004 144.805 364.452 144.341 365.038 143.723C365.623 143.104 366.12 142.6 366.527 142.209V144.895C365.176 146.327 364.077 147.344 363.231 147.946C362.401 148.549 361.579 148.85 360.765 148.85C359.968 148.85 359.235 148.736 358.568 148.508C357.315 150.038 355.825 151.291 354.1 152.268C352.391 153.228 350.617 153.708 348.778 153.708C346.141 153.708 344.261 152.463 343.138 149.973C342.503 148.573 342.186 147.002 342.186 145.261C342.186 141.306 343.586 138.189 346.385 135.91C349.201 133.632 352.936 132.492 357.591 132.492C357.917 132.492 358.096 132.598 358.128 132.81ZM359.52 140.939C359.52 139.442 358.853 138.693 357.518 138.693C356.2 138.693 355.54 139.483 355.54 141.062C355.54 141.892 355.76 142.754 356.2 143.649C356.655 144.528 357.266 145.228 358.031 145.749C358.356 145.212 358.682 144.471 359.007 143.527C359.349 142.567 359.52 141.704 359.52 140.939ZM375.369 135.202L378.299 134.86C378.771 134.86 379.007 134.974 379.007 135.202C379.007 135.43 378.445 136.708 377.322 139.035C374.75 144.309 373.465 147.482 373.465 148.557C373.465 148.573 373.456 148.638 373.44 148.752C373.44 148.85 373.44 148.931 373.44 148.996C373.456 149.045 373.473 149.118 373.489 149.216C373.505 149.313 373.53 149.387 373.562 149.436C373.676 149.582 373.839 149.655 374.05 149.655C374.474 149.655 375.768 148.695 377.932 146.774C380.113 144.838 381.603 143.332 382.4 142.258V144.992C376.59 150.803 372.675 153.708 370.657 153.708C369.941 153.708 369.404 153.391 369.046 152.756C368.688 152.105 368.508 151.47 368.508 150.852C368.508 150.233 368.631 149.525 368.875 148.728C369.119 147.914 369.444 146.986 369.851 145.944C370.274 144.903 370.665 143.959 371.023 143.112C371.381 142.266 371.772 141.354 372.195 140.378C372.634 139.385 372.887 138.807 372.952 138.645C372.024 139.589 370.942 140.622 369.705 141.745C368.484 142.868 367.337 143.983 366.262 145.09V142.355L371.218 137.204C369.233 136.716 367.947 135.951 367.361 134.909C367.231 134.698 367.166 134.51 367.166 134.348C367.166 133.208 367.597 132.207 368.46 131.345C369.322 130.482 370.47 130.051 371.902 130.051C372.634 130.051 373.001 130.482 373.001 131.345C373.001 131.849 372.854 132.403 372.561 133.005C372.268 133.591 371.918 133.99 371.511 134.201C372.26 134.868 373.546 135.202 375.369 135.202ZM386.628 139.206C387.865 140.801 389.232 141.599 390.729 141.599C391.673 141.599 392.487 141.135 393.171 140.207C393.871 139.279 394.221 138.303 394.221 137.277C394.221 136.252 394.025 135.568 393.635 135.227C393.26 134.868 392.707 134.689 391.975 134.689C391.258 134.689 390.583 134.852 389.948 135.178C389.33 135.503 388.801 135.91 388.361 136.398C387.515 137.359 386.937 138.295 386.628 139.206ZM400.031 142.307V144.992C397.443 147.84 395.132 150.005 393.098 151.486C391.063 152.967 389.126 153.708 387.287 153.708C383.609 153.708 381.314 152.512 380.402 150.119C380.06 149.175 379.89 148.036 379.89 146.701C379.89 144.325 380.386 142.062 381.379 139.914C382.372 137.749 383.796 135.975 385.651 134.592C387.523 133.192 389.598 132.492 391.877 132.492C395.718 132.492 397.639 133.924 397.639 136.789C397.639 138.645 396.89 140.264 395.393 141.647C393.895 143.015 392.211 143.698 390.339 143.698C389.59 143.698 388.809 143.479 387.995 143.039C387.181 142.6 386.49 141.94 385.92 141.062C385.22 142.526 384.87 143.959 384.87 145.358C384.87 149.118 386.237 150.998 388.972 150.998C389.688 150.998 390.567 150.656 391.608 149.973C392.666 149.289 393.594 148.573 394.392 147.824C395.205 147.059 396.231 146.058 397.468 144.821C398.705 143.568 399.559 142.73 400.031 142.307Z" fill="#005A9C"/>
</svg>
